<svg width="181" height="88" viewBox="0 0 181 88" fill="none" xmlns="http://www.w3.org/2000/svg">
<path d="M22.5352 38.3965C22.5352 39.5566 22.3828 40.6758 22.0781 41.7539C21.7852 42.8203 21.3633 43.8223 20.8125 44.7598C20.2617 45.6855 19.6055 46.5352 18.8438 47.3086C18.082 48.0703 17.2324 48.7266 16.2949 49.2773C15.3574 49.8281 14.3496 50.2559 13.2715 50.5605C12.2051 50.8535 11.0918 51 9.93164 51H2.33789V25.793H9.93164C11.0918 25.793 12.2051 25.9453 13.2715 26.25C14.3496 26.543 15.3574 26.9648 16.2949 27.5156C17.2324 28.0664 18.082 28.7285 18.8438 29.502C19.6055 30.2637 20.2617 31.1133 20.8125 32.0508C21.3633 32.9766 21.7852 33.9785 22.0781 35.0566C22.3828 36.123 22.5352 37.2363 22.5352 38.3965ZM17.4902 38.3965C17.4902 37.3535 17.291 36.375 16.8926 35.4609C16.5059 34.5469 15.9668 33.75 15.2754 33.0703C14.5957 32.3789 13.793 31.834 12.8672 31.4355C11.9531 31.0371 10.9746 30.8379 9.93164 30.8379H7.41797V45.9551H9.93164C10.9746 45.9551 11.9531 45.7617 12.8672 45.375C13.793 44.9766 14.5957 44.4375 15.2754 43.7578C15.9668 43.0664 16.5059 42.2637 16.8926 41.3496C17.291 40.4238 17.4902 39.4395 17.4902 38.3965ZM43.5762 41.4199C43.5762 42.8262 43.3242 44.1387 42.8203 45.3574C42.3164 46.5645 41.6309 47.6133 40.7637 48.5039C39.8965 49.3828 38.877 50.0801 37.7051 50.5957C36.5449 51.0996 35.2969 51.3516 33.9609 51.3516C32.6367 51.3516 31.3887 51.0996 30.2168 50.5957C29.0566 50.0801 28.0371 49.3828 27.1582 48.5039C26.291 47.6133 25.6055 46.5645 25.1016 45.3574C24.5977 44.1387 24.3457 42.8262 24.3457 41.4199C24.3457 39.9902 24.5977 38.666 25.1016 37.4473C25.6055 36.2285 26.291 35.1797 27.1582 34.3008C28.0371 33.4102 29.0566 32.7129 30.2168 32.209C31.3887 31.7051 32.6367 31.4531 33.9609 31.4531C35.2969 31.4531 36.5449 31.6934 37.7051 32.1738C38.877 32.6426 39.8965 33.3164 40.7637 34.1953C41.6309 35.0625 42.3164 36.1113 42.8203 37.3418C43.3242 38.5605 43.5762 39.9199 43.5762 41.4199ZM38.7422 41.4199C38.7422 40.6465 38.6133 39.9492 38.3555 39.3281C38.1094 38.6953 37.7695 38.1562 37.3359 37.7109C36.9023 37.2539 36.3926 36.9082 35.8066 36.6738C35.2324 36.4277 34.6172 36.3047 33.9609 36.3047C33.3047 36.3047 32.6836 36.4277 32.0977 36.6738C31.5234 36.9082 31.0195 37.2539 30.5859 37.7109C30.1641 38.1562 29.8301 38.6953 29.584 39.3281C29.3379 39.9492 29.2148 40.6465 29.2148 41.4199C29.2148 42.1465 29.3379 42.8203 29.584 43.4414C29.8301 44.0625 30.1641 44.6016 30.5859 45.0586C31.0195 45.5156 31.5234 45.8789 32.0977 46.1484C32.6836 46.4062 33.3047 46.5352 33.9609 46.5352C34.6172 46.5352 35.2324 46.4121 35.8066 46.166C36.3926 45.9199 36.9023 45.5742 37.3359 45.1289C37.7695 44.6836 38.1094 44.1445 38.3555 43.5117C38.6133 42.8789 38.7422 42.1816 38.7422 41.4199ZM62.6836 35.918L59.168 39.4512C58.9922 38.959 58.752 38.5195 58.4473 38.1328C58.1426 37.7344 57.7969 37.4004 57.4102 37.1309C57.0352 36.8613 56.625 36.6562 56.1797 36.5156C55.7344 36.375 55.2773 36.3047 54.8086 36.3047C54.1523 36.3047 53.5312 36.4395 52.9453 36.709C52.3711 36.9785 51.8672 37.3594 51.4336 37.8516C51.0117 38.332 50.6777 38.9062 50.4316 39.5742C50.1855 40.2422 50.0625 40.9805 50.0625 41.7891C50.0625 42.4453 50.1855 43.0605 50.4316 43.6348C50.6777 44.209 51.0117 44.7129 51.4336 45.1465C51.8672 45.5801 52.3711 45.9199 52.9453 46.166C53.5312 46.4121 54.1523 46.5352 54.8086 46.5352C55.2773 46.5352 55.7285 46.4707 56.1621 46.3418C56.5957 46.2129 57 46.0312 57.375 45.7969C57.7617 45.5508 58.1016 45.2578 58.3945 44.918C58.6992 44.5664 58.9453 44.1797 59.1328 43.7578L62.6484 47.291C62.2031 47.9238 61.6875 48.4922 61.1016 48.9961C60.5273 49.5 59.9004 49.9277 59.2207 50.2793C58.5527 50.6309 57.8438 50.8945 57.0938 51.0703C56.3555 51.2578 55.5938 51.3516 54.8086 51.3516C53.4844 51.3516 52.2363 51.1055 51.0645 50.6133C49.9043 50.1094 48.8848 49.4238 48.0059 48.5566C47.1387 47.6895 46.4531 46.6758 45.9492 45.5156C45.4453 44.3555 45.1934 43.1133 45.1934 41.7891C45.1934 40.3477 45.4453 39 45.9492 37.7461C46.4531 36.4922 47.1387 35.4023 48.0059 34.4766C48.8848 33.5391 49.9043 32.8008 51.0645 32.2617C52.2363 31.7227 53.4844 31.4531 54.8086 31.4531C55.5938 31.4531 56.3613 31.5527 57.1113 31.752C57.873 31.9512 58.5938 32.2441 59.2734 32.6309C59.9648 33.0059 60.5977 33.4688 61.1719 34.0195C61.7578 34.5703 62.2617 35.2031 62.6836 35.918ZM80.6836 51H75.6387V25.793H80.6836V51ZM94.3066 51C93.1465 51 92.0566 50.7832 91.0371 50.3496C90.0176 49.9043 89.1211 49.3008 88.3477 48.5391C87.5859 47.7656 86.9824 46.8691 86.5371 45.8496C86.1035 44.8301 85.8867 43.7402 85.8867 42.5801V36.9902H83.5488V32.209H85.8867V24.6855H90.668V32.209H97.9453V36.9902H90.668V42.5801C90.668 43.084 90.7617 43.5586 90.9492 44.0039C91.1367 44.4375 91.3945 44.8184 91.7227 45.1465C92.0508 45.4746 92.4375 45.7383 92.8828 45.9375C93.3281 46.125 93.8027 46.2188 94.3066 46.2188H97.9453V51H94.3066Z" fill="url(#paint0_linear)"/>
<g clip-path="url(#clip0)">
<path d="M160.638 62L121.057 58.7671L125.419 5.01474L165 8.2476L160.638 62Z" fill="url(#paint1_linear)"/>
<path d="M160.163 61.2326L121.648 58.0859L125.893 5.7821L164.408 8.928L160.163 61.2326Z" fill="url(#paint2_linear)"/>
<path d="M162.44 52.9617L123.44 60.4774L113.3 7.51569L152.299 0L162.44 52.9617Z" fill="url(#paint3_linear)"/>
<path d="M161.778 52.3498L123.829 59.6633L113.962 8.12766L151.91 0.81488L161.778 52.3498Z" fill="#E0E0E0"/>
<path d="M157.726 4.00021H118.014V57.9305H157.726V4.00021Z" fill="url(#paint4_linear)"/>
<path d="M157.192 4.7265H118.549V57.2035H157.192V4.7265Z" fill="white"/>
<path d="M131.571 13.7809C131.613 17.2924 134.485 20.1049 137.986 20.0614C141.486 20.0179 144.291 17.1378 144.248 13.6255C144.234 12.3202 143.817 11.0506 143.054 9.98916C142.292 8.9277 141.219 8.1257 139.983 7.69202L140.003 9.32978C140.011 9.89925 139.793 10.4489 139.395 10.8584C138.998 11.2678 138.454 11.5037 137.882 11.5143C137.311 11.5175 136.762 11.2956 136.355 10.8969C135.948 10.4983 135.716 9.95546 135.71 9.38695L135.691 7.74919C134.466 8.21226 133.413 9.03939 132.676 10.1184C131.939 11.1974 131.553 12.476 131.571 13.7809Z" fill="url(#paint5_linear)"/>
<path d="M144.25 13.1118C144.25 9.59954 141.412 6.75076 137.911 6.75076C134.41 6.75076 131.572 9.59793 131.572 13.1118C131.57 14.4173 131.971 15.692 132.721 16.7627C133.471 17.8334 134.534 18.6483 135.765 19.0968V17.459C135.764 16.8905 135.99 16.3449 136.392 15.9415C136.794 15.5381 137.34 15.3096 137.911 15.306C138.482 15.3096 139.028 15.5381 139.43 15.9415C139.832 16.3449 140.058 16.8905 140.057 17.459V19.0976C141.288 18.6491 142.351 17.834 143.101 16.7632C143.851 15.6923 144.252 14.4175 144.25 13.1118Z" fill="url(#paint6_linear)"/>
<path d="M137.915 14.6819C139.261 14.6819 140.352 13.5875 140.352 12.2374C140.352 10.8873 139.261 9.79279 137.915 9.79279C136.569 9.79279 135.479 10.8873 135.479 12.2374C135.479 13.5875 136.569 14.6819 137.915 14.6819Z" fill="white" stroke="white" stroke-miterlimit="10"/>
<path d="M137.911 15.306C137.34 15.3096 136.794 15.5381 136.392 15.9415C135.99 16.345 135.764 16.8905 135.765 17.4591V19.0976C137.152 19.5965 138.67 19.5965 140.057 19.0976V17.4591C140.058 16.8905 139.832 16.345 139.43 15.9415C139.028 15.5381 138.482 15.3096 137.911 15.306Z" fill="white" stroke="white" stroke-miterlimit="10"/>
<path d="M135.457 12.1021C135.262 11.722 135.172 11.2965 135.198 10.8701C135.225 10.4427 135.419 10.0427 135.738 9.75494C136.093 9.45138 136.574 9.34429 137.038 9.30725C137.503 9.27021 137.975 9.29276 138.432 9.20177C138.811 9.1244 139.17 8.97262 139.49 8.75529C139.809 8.53796 140.082 8.25944 140.291 7.936C140.321 8.29432 140.35 8.66068 140.281 9.01174C140.212 9.36281 140.031 9.71226 139.726 9.89746C140.096 9.72595 140.055 10.1285 139.975 10.3693C140.159 10.5915 140.604 10.6286 140.627 10.916C140.65 11.2035 140.646 11.5006 140.534 11.7655C140.422 12.0304 140.542 12.4982 140.256 12.5184" fill="white"/>
<path d="M135.457 12.1021C135.262 11.722 135.172 11.2965 135.198 10.8701C135.225 10.4427 135.419 10.0427 135.738 9.75494C136.093 9.45138 136.574 9.34429 137.038 9.30725C137.503 9.27021 137.975 9.29276 138.432 9.20177C138.811 9.1244 139.17 8.97262 139.49 8.75529C139.809 8.53796 140.082 8.25944 140.291 7.936C140.321 8.29432 140.35 8.66068 140.281 9.01174C140.212 9.36281 140.031 9.71226 139.726 9.89746C140.096 9.72595 140.055 10.1285 139.975 10.3693C140.159 10.5915 140.604 10.6286 140.627 10.916C140.65 11.2035 140.646 11.5006 140.534 11.7655C140.422 12.0304 140.542 12.4982 140.256 12.5184" stroke="white" stroke-miterlimit="10"/>
<path d="M139.862 9.8443C139.862 9.8443 141.56 9.99326 140.352 12.5248L139.862 9.8443Z" fill="white"/>
<path d="M127.418 46.2182H122.169V51.4841H127.418V46.2182Z" fill="url(#paint7_linear)"/>
<path d="M126.965 46.6723H122.621V51.03H126.965V46.6723Z" fill="#764BA2"/>
<path d="M144.249 24.428H131.58V25.3363H144.249V24.428Z" fill="#69F0AE"/>
<path d="M152.937 25.6994H131.58V26.6077H152.937V25.6994Z" fill="#E0E0E0"/>
<path d="M152.937 26.97H131.58V27.8783H152.937V26.97Z" fill="#E0E0E0"/>
<path d="M144.249 35.7772H131.58V36.6855H144.249V35.7772Z" fill="#69F0AE"/>
<path d="M152.937 37.0478H131.58V37.9561H152.937V37.0478Z" fill="#E0E0E0"/>
<path d="M152.937 38.3192H131.58V39.2275H152.937V38.3192Z" fill="#E0E0E0"/>
<path d="M144.249 47.1256H131.58V48.0339H144.249V47.1256Z" fill="#764BA2"/>
<path d="M152.937 48.397H131.58V49.3053H152.937V48.397Z" fill="#E0E0E0"/>
<path d="M152.937 49.6685H131.58V50.5767H152.937V49.6685Z" fill="#E0E0E0"/>
<path d="M114.773 40.6358H111.816C111.515 36.5228 108.097 33.2787 103.92 33.2787C99.5461 33.2787 95.998 36.836 95.998 41.2244C95.998 45.6127 99.5437 49.17 103.92 49.17C107.759 49.17 110.958 46.4324 111.681 42.7937H114.77C115.057 42.7937 115.333 42.68 115.536 42.4777C115.739 42.2753 115.853 42.0009 115.853 41.7147C115.853 41.4286 115.739 41.1541 115.536 40.9518C115.333 40.7494 115.057 40.6358 114.77 40.6358H114.773Z" fill="url(#paint8_linear)"/>
<path d="M104.069 33.8705C100.02 33.8705 96.7383 37.163 96.7383 41.2244C96.7383 45.2858 100.02 48.5782 104.069 48.5782C108.117 48.5782 111.4 45.2858 111.4 41.2244C111.4 37.163 108.117 33.8705 104.069 33.8705ZM104.069 47.4896C100.62 47.4896 97.8248 44.6851 97.8248 41.2252C97.8248 37.7652 100.62 34.9607 104.069 34.9607C107.518 34.9607 110.313 37.7636 110.313 41.226C110.313 44.6883 107.518 47.4888 104.069 47.4888V47.4896Z" fill="white"/>
<path d="M110.767 40.6801H114.221C114.457 40.6801 114.683 40.7734 114.85 40.9395C115.016 41.1056 115.11 41.3309 115.11 41.5658V41.7896C115.11 42.0245 115.016 42.2498 114.85 42.4159C114.683 42.582 114.457 42.6753 114.221 42.6753H110.767V40.6801Z" fill="white"/>
<path d="M104.07 47.5797C107.569 47.5797 110.405 44.7343 110.405 41.2243C110.405 37.7143 107.569 34.8689 104.07 34.8689C100.571 34.8689 97.7354 37.7143 97.7354 41.2243C97.7354 44.7343 100.571 47.5797 104.07 47.5797Z" fill="url(#paint9_linear)"/>
<path opacity="0.2" d="M104.777 38.8547C104.283 39.1124 104.045 39.8209 104.373 40.2734C104.504 40.453 104.696 40.5722 104.863 40.7203C105.031 40.8685 105.172 41.0754 105.143 41.296C105.115 41.4306 105.052 41.5556 104.961 41.6592C104.629 42.0972 104.219 42.5135 104.112 43.053C104.015 43.5425 104.192 44.0546 104.482 44.4612C104.644 44.6923 104.861 44.9065 105.135 44.9806C105.438 45.0611 105.766 44.9548 106.024 44.7704C106.282 44.5861 106.472 44.3316 106.661 44.0812L107.102 43.4982C107.222 43.3372 107.344 43.1657 107.357 42.966C107.373 42.623 107.05 42.3661 106.94 42.0416C106.737 41.4394 107.298 40.8169 107.223 40.1849C107.108 39.2299 105.628 38.4078 104.777 38.8547Z" fill="black"/>
</g>
<rect width="98" height="1" transform="matrix(1 0 0 -1 2 57)" fill="url(#paint10_linear)"/>
<defs>
<linearGradient id="paint0_linear" x1="90.5" y1="15" x2="90.5" y2="88" gradientUnits="userSpaceOnUse">
<stop stop-color="white"/>
<stop offset="1" stop-color="white" stop-opacity="0"/>
</linearGradient>
<linearGradient id="paint1_linear" x1="140.837" y1="60.389" x2="145.193" y2="6.6133" gradientUnits="userSpaceOnUse">
<stop stop-color="#808080" stop-opacity="0.25"/>
<stop offset="0.54" stop-color="#808080" stop-opacity="0.12"/>
<stop offset="1" stop-color="#808080" stop-opacity="0.1"/>
</linearGradient>
<linearGradient id="paint2_linear" x1="143.028" y1="5.7821" x2="143.028" y2="61.2326" gradientUnits="userSpaceOnUse">
<stop stop-color="white"/>
<stop offset="1" stop-color="#764BA2" stop-opacity="0"/>
</linearGradient>
<linearGradient id="paint3_linear" x1="42325.3" y1="41016.9" x2="34709.2" y2="1197.37" gradientUnits="userSpaceOnUse">
<stop stop-color="#808080" stop-opacity="0.25"/>
<stop offset="0.54" stop-color="#808080" stop-opacity="0.12"/>
<stop offset="1" stop-color="#808080" stop-opacity="0.1"/>
</linearGradient>
<linearGradient id="paint4_linear" x1="20686.2" y1="38804.7" x2="20686.2" y2="2683.26" gradientUnits="userSpaceOnUse">
<stop stop-color="#808080" stop-opacity="0.25"/>
<stop offset="0.54" stop-color="#808080" stop-opacity="0.12"/>
<stop offset="1" stop-color="#808080" stop-opacity="0.1"/>
</linearGradient>
<linearGradient id="paint5_linear" x1="138.313" y1="19.9587" x2="137.672" y2="7.54596" gradientUnits="userSpaceOnUse">
<stop stop-opacity="0.12"/>
<stop offset="0.55" stop-opacity="0.09"/>
<stop offset="1" stop-opacity="0.02"/>
</linearGradient>
<linearGradient id="paint6_linear" x1="137.911" y1="6.75076" x2="137.911" y2="19.0976" gradientUnits="userSpaceOnUse">
<stop stop-color="#484C6A"/>
<stop offset="1" stop-color="white" stop-opacity="0"/>
</linearGradient>
<linearGradient id="paint7_linear" x1="1991.7" y1="3413.29" x2="1991.7" y2="3068.89" gradientUnits="userSpaceOnUse">
<stop stop-color="#808080" stop-opacity="0.25"/>
<stop offset="0.54" stop-color="#808080" stop-opacity="0.12"/>
<stop offset="1" stop-color="#808080" stop-opacity="0.1"/>
</linearGradient>
<linearGradient id="paint8_linear" x1="5973.17" y1="10770.4" x2="5973.17" y2="7634.1" gradientUnits="userSpaceOnUse">
<stop stop-color="#808080" stop-opacity="0.25"/>
<stop offset="0.54" stop-color="#808080" stop-opacity="0.12"/>
<stop offset="1" stop-color="#808080" stop-opacity="0.1"/>
</linearGradient>
<linearGradient id="paint9_linear" x1="104.07" y1="34.8689" x2="104.07" y2="47.5797" gradientUnits="userSpaceOnUse">
<stop stop-color="white"/>
<stop offset="1" stop-color="white" stop-opacity="0"/>
</linearGradient>
<linearGradient id="paint10_linear" x1="49" y1="0" x2="49" y2="1" gradientUnits="userSpaceOnUse">
<stop stop-color="#C4C4C4"/>
<stop offset="1" stop-color="#C4C4C4" stop-opacity="0"/>
</linearGradient>
<clipPath id="clip0">
<rect width="69" height="62" fill="white" transform="translate(96)"/>
</clipPath>
</defs>
</svg>
