<svg width="944" height="805" viewBox="0 0 944 805" fill="none" xmlns="http://www.w3.org/2000/svg">
<g clip-path="url(#clip0)">
<path d="M683.285 467.895L421.164 434.87C409.284 336.097 427.232 239.667 457.876 143.77L719.998 176.795C680.444 270.874 668.834 367.975 683.285 467.895Z" fill="#F2F2F2"/>
<path d="M654.685 198.811L494.499 178.629L492.33 195.83L652.515 216.012L654.685 198.811Z" fill="#394867"/>
<path opacity="0.3" d="M674.58 243.66L457.47 216.306L456.385 224.907L673.496 252.261L674.58 243.66Z" fill="#394867"/>
<path opacity="0.3" d="M671.077 271.447L453.966 244.093L452.881 252.694L669.992 280.048L671.077 271.447Z" fill="#394867"/>
<path opacity="0.3" d="M667.571 299.234L450.46 271.88L449.375 280.481L666.486 307.834L667.571 299.234Z" fill="#394867"/>
<path opacity="0.3" d="M664.068 327.02L446.957 299.667L445.872 308.267L662.983 335.621L664.068 327.02Z" fill="#394867"/>
<path opacity="0.3" d="M660.564 354.807L443.453 327.454L442.368 336.054L659.479 363.408L660.564 354.807Z" fill="#394867"/>
<path opacity="0.3" d="M657.059 382.594L439.948 355.24L438.864 363.841L655.974 391.195L657.059 382.594Z" fill="#394867"/>
<path opacity="0.3" d="M653.555 410.381L436.444 383.027L435.36 391.628L652.47 418.982L653.555 410.381Z" fill="#394867"/>
<path d="M559.157 370.585L313.927 272.342C327.439 173.778 369.216 85.0254 423.14 1.52588e-05L668.371 98.2431C606.287 179.257 570.473 270.262 559.157 370.585Z" fill="#E6E6E6"/>
<path d="M599.608 103.024L449.745 42.9865L443.292 59.0795L593.155 119.117L599.608 103.024Z" fill="#394867"/>
<path opacity="0.3" d="M607.503 151.446L404.383 70.0727L401.156 78.1192L604.276 159.492L607.503 151.446Z" fill="#394867"/>
<path opacity="0.3" d="M597.078 177.442L393.958 96.069L390.731 104.115L593.851 185.488L597.078 177.442Z" fill="#394867"/>
<path opacity="0.3" d="M586.653 203.438L383.533 122.065L380.306 130.112L583.427 211.485L586.653 203.438Z" fill="#394867"/>
<path opacity="0.3" d="M576.229 229.435L373.108 148.061L369.882 156.108L573.002 237.481L576.229 229.435Z" fill="#394867"/>
<path opacity="0.3" d="M565.804 255.431L362.684 174.058L359.457 182.104L562.577 263.477L565.804 255.431Z" fill="#394867"/>
<path opacity="0.3" d="M555.379 281.427L352.259 200.054L349.032 208.101L552.152 289.474L555.379 281.427Z" fill="#394867"/>
<path opacity="0.3" d="M544.954 307.423L341.834 226.05L338.607 234.097L541.727 315.47L544.954 307.423Z" fill="#394867"/>
<path d="M498.51 394.246H234.315C210.168 297.733 215.91 199.816 234.315 100.842H498.51C471.039 199.126 471.67 296.917 498.51 394.246Z" fill="#F2F2F2"/>
<path d="M436.464 130.849H275.011V148.187H436.464V130.849Z" fill="#394867"/>
<path opacity="0.3" d="M461.817 172.859H242.988V181.528H461.817V172.859Z" fill="#394867"/>
<path opacity="0.3" d="M461.817 200.866H242.988V209.535H461.817V200.866Z" fill="#394867"/>
<path opacity="0.3" d="M461.817 228.873H242.988V237.542H461.817V228.873Z" fill="#394867"/>
<path opacity="0.3" d="M461.817 256.88H242.988V265.548H461.817V256.88Z" fill="#394867"/>
<path opacity="0.3" d="M461.817 284.886H242.988V293.555H461.817V284.886Z" fill="#394867"/>
<path opacity="0.3" d="M461.817 312.893H242.988V321.562H461.817V312.893Z" fill="#394867"/>
<path opacity="0.3" d="M461.817 340.9H242.988V349.568H461.817V340.9Z" fill="#394867"/>
<path d="M320.428 335.672L229.409 264.947C228.499 263.364 227.187 262.049 225.605 261.135C224.024 260.22 222.229 259.739 220.402 259.739H171.278C168.522 259.739 165.879 260.833 163.931 262.781C161.982 264.728 160.888 267.369 160.888 270.124V703.487C160.888 712.421 164.438 720.988 170.759 727.305C177.079 733.622 185.651 737.171 194.589 737.171H698.873C703.299 737.171 707.681 736.3 711.77 734.607C715.859 732.915 719.574 730.433 722.703 727.305C725.833 724.178 728.315 720.464 730.009 716.378C731.703 712.291 732.574 707.911 732.574 703.487V366.289C732.574 358.169 729.347 350.381 723.602 344.64C717.858 338.898 710.067 335.672 701.943 335.672H320.428Z" fill="url(#paint0_linear)"/>
<path d="M715.423 436.172H623.953V468.171H715.423V436.172Z" fill="#394867"/>
<path d="M0 803.012C0 803.012 418.346 563.881 923.518 803.012H0Z" fill="url(#paint1_linear)"/>
<path d="M89.5976 254.253C89.5976 254.253 94.0876 278.038 90.9446 279.833C88.4061 281.427 86.0033 283.229 83.7607 285.218L91.8426 296.437L111.149 300.476L129.558 283.423V266.37C129.558 266.37 124.17 257.843 125.068 252.458C125.966 247.073 89.5976 254.253 89.5976 254.253Z" fill="#FBBEBE"/>
<path opacity="0.1" d="M89.5976 254.253C89.5976 254.253 94.0876 278.038 90.9446 279.833C88.4061 281.427 86.0033 283.229 83.7607 285.218L91.8426 296.437L111.149 300.476L129.558 283.423V266.37C129.558 266.37 124.17 257.843 125.068 252.458C125.966 247.073 89.5976 254.253 89.5976 254.253Z" fill="black"/>
<path d="M58.618 295.091L55.924 296.437C55.924 296.437 50.0871 298.681 47.3931 317.978C44.6992 337.275 38.4133 383.498 40.2093 384.845C42.0052 386.191 41.1072 395.166 41.1072 395.166L54.5771 324.71L58.618 295.091Z" fill="#2F2E41"/>
<path d="M90.5442 185.566C90.1335 186.423 89.9895 187.423 89.6041 188.296C87.8542 192.259 82.8726 191.372 79.2795 192.871C76.2365 194.141 73.9654 197.627 73.7273 201.394C73.6262 202.993 73.8608 204.606 73.717 206.201C73.4513 209.147 71.9317 211.741 71.3908 214.635C70.0768 221.665 73.1427 232.767 76.6044 228.973C77.6961 227.777 79.0625 226.984 80.2416 225.907C83.304 223.11 84.8636 218.663 87.3511 215.172C87.6658 214.66 88.0989 214.231 88.614 213.921C90.4317 213.018 92.0498 215.434 93.4866 217.018C94.218 217.816 95.1109 218.45 96.1061 218.877C97.1013 219.303 98.176 219.513 99.2586 219.492C100.341 219.472 101.407 219.221 102.385 218.757C103.363 218.292 104.232 217.625 104.932 216.8C105.37 216.162 105.916 215.605 106.544 215.153C107.245 214.831 108.035 214.753 108.785 214.933C112.328 215.557 115.52 217.456 117.757 220.273C118.957 221.74 119.96 223.467 121.398 224.605C122.836 225.743 124.934 226.118 126.23 224.765C128.836 226.607 129.809 230.517 129.815 234.078C129.822 237.639 129.093 241.177 129.271 244.732C129.449 248.286 130.845 252.123 133.679 253.427C134.125 250.19 135.806 247.251 138.37 245.224C140.3 243.788 142.647 243.076 144.279 241.202C147.547 237.45 146.512 231.208 146.637 225.855C146.792 219.253 149.081 212.94 149.486 206.352C149.688 203.06 149.348 199.53 147.614 196.925C146.302 195.189 144.638 193.748 142.732 192.698L127.321 182.816C126.637 182.31 125.861 181.942 125.036 181.732C122.767 181.325 120.806 183.452 118.656 184.389C116.862 185.025 114.95 185.257 113.056 185.068C107.073 184.906 105.389 186.067 101.368 182.171C101.055 181.855 100.672 181.617 100.25 181.477C99.828 181.336 99.3789 181.296 98.9388 181.361C96.5336 181.742 91.86 182.822 90.5442 185.566Z" fill="#2F2E41"/>
<path d="M99.028 727.704L108.456 748.347L90.0475 754.631L80.6191 749.694L82.8645 727.704H99.028Z" fill="#FBBEBE"/>
<path d="M90.4969 745.206C90.4969 745.206 75.6801 736.231 72.9861 739.372C70.2921 742.513 48.7404 765.401 48.7404 765.401C48.7404 765.401 15.5149 783.351 41.1076 786.044C66.7002 788.737 108.457 770.337 108.457 770.337C108.457 770.337 110.702 746.104 108.906 745.655C107.11 745.206 99.4767 749.694 95.8848 748.347C93.9011 747.661 92.0708 746.594 90.4969 745.206Z" fill="#2F2E41"/>
<path d="M123.273 749.694V768.093L99.0273 762.708L104.415 743.86L123.273 749.694Z" fill="#FBBEBE"/>
<path d="M98.5782 755.977C98.5782 755.977 123.273 751.938 125.518 764.054C127.763 776.171 133.6 794.122 127.763 798.61C121.926 803.097 91.8433 808.931 91.3943 801.302C90.9453 793.673 94.5373 778.864 94.5373 778.864C94.5373 778.864 96.7822 767.196 95.4353 764.054C94.0883 760.913 98.5782 755.977 98.5782 755.977Z" fill="#2F2E41"/>
<path d="M49.2547 452.942C49.2547 452.942 28.9843 581.405 45.5971 644.233C62.2099 707.061 73.8837 744.309 73.8837 744.309C73.8837 744.309 102.619 736.231 102.619 730.845C102.619 725.46 91.3944 645.579 88.7005 637.95C86.0065 630.321 81.5166 627.629 85.5575 621.346C89.5984 615.063 96.3333 574.674 96.3333 574.674C96.3333 574.674 111.15 641.54 112.048 643.336C112.946 645.131 102.619 747.899 102.619 747.899C102.619 747.899 132.258 769.397 134.049 753.284C134.498 749.245 154.253 606.088 154.253 604.293C154.253 602.498 162.335 465.174 149.315 458.443C136.294 451.711 49.2547 452.942 49.2547 452.942Z" fill="#5C6880"/>
<path d="M107.11 263.228C123.972 263.228 137.641 249.566 137.641 232.712C137.641 215.858 123.972 202.196 107.11 202.196C90.2476 202.196 76.5781 215.858 76.5781 232.712C76.5781 249.566 90.2476 263.228 107.11 263.228Z" fill="#FBBEBE"/>
<path d="M100.374 293.296V290.154L91.3944 275.345C91.3944 275.345 82.4145 276.243 81.0676 280.282C79.7206 284.32 64.4548 316.632 64.4548 316.632L48.291 461.584C48.291 461.584 92.7414 472.355 99.4763 464.725C106.211 457.096 131.804 291.052 131.804 291.052L135.396 270.857C135.396 270.857 129.228 261.882 127.822 263.228C126.416 264.575 103.068 290.603 103.068 290.603L102.619 294.642L100.374 293.296Z" fill="#394867"/>
<path d="M87.7383 272.311C87.7383 272.311 79.4319 270.291 76.7379 275.228C74.044 280.164 74.044 281.959 71.35 283.754C68.6561 285.549 52.9413 293.627 52.0433 296.768C51.1453 299.91 31.8386 399.088 31.8386 399.088C31.8386 399.088 22.4097 428.707 26.8996 448.901C31.3896 469.096 28.2466 473.135 37.6755 474.93C47.1044 476.725 48.4513 476.725 48.4513 474.032C48.4513 471.34 60.5742 380.239 69.1051 373.957C77.6359 367.674 75.391 299.012 75.391 299.012C75.391 299.012 87.5138 284.203 87.5138 281.959C87.5138 279.715 89.5343 272.142 87.7383 272.311Z" fill="white"/>
<path d="M116.538 288.808C117.79 289.017 134.947 266.818 136.294 267.716C137.641 268.613 144.375 280.281 145.273 280.281C146.171 280.281 184.336 289.706 187.479 307.208C190.622 324.71 165.478 380.357 165.478 380.357C165.478 380.357 154.702 412.22 156.947 426.131C158.47 436.726 158.167 447.502 156.049 457.994C155.151 461.584 152.008 465.623 152.906 467.418C153.804 469.213 133.151 465.174 124.62 470.111C116.089 475.047 77.9244 478.637 80.1693 473.252C82.4143 467.867 83.7613 446.775 90.0472 424.336C96.333 401.898 112.497 348.943 109.803 345.353C107.109 341.763 113.844 288.359 116.538 288.808Z" fill="white"/>
<path d="M182.092 301.822L187.929 307.208C187.929 307.208 194.664 318.876 193.766 324.261C192.868 329.646 212.624 410.873 204.542 413.566C196.46 416.259 177.153 429.722 174.908 433.312C172.663 436.902 167.275 443.185 163.683 444.98C160.091 446.775 156.499 449.916 154.254 448.121C152.009 446.326 147.071 409.527 150.662 408.181C154.254 406.834 157.846 402.795 161.438 402.795C165.03 402.795 167.275 399.205 167.275 396.064C167.275 392.923 164.581 374.074 164.581 374.074L158.744 329.646L182.092 301.822Z" fill="white"/>
<path d="M95.931 190.032C95.5678 190.679 95.4405 191.435 95.0998 192.095C93.5525 195.091 89.1477 194.421 85.9707 195.554C84.628 196.056 83.4547 196.927 82.586 198.067C81.7174 199.207 81.1889 200.569 81.0614 201.997C80.9721 203.206 81.1795 204.425 81.0523 205.631C80.8174 207.858 79.4737 209.819 78.9954 212.006C77.8336 217.321 80.5445 225.714 83.6054 222.846C84.5706 221.941 85.7788 221.342 86.8214 220.528C89.5291 218.413 90.9082 215.051 93.1076 212.413C93.3999 212.014 93.7826 211.689 94.2243 211.467C95.8315 210.784 97.2622 212.611 98.5327 213.808C99.9385 215.042 101.754 215.709 103.625 215.679C105.495 215.648 107.288 214.922 108.653 213.643C109.053 213.15 109.535 212.729 110.078 212.398C110.709 212.154 111.397 212.096 112.06 212.232C115.083 212.648 117.877 214.07 119.992 216.268C120.947 217.471 122.026 218.569 123.212 219.543C124.484 220.404 126.339 220.687 127.484 219.665C129.789 221.057 130.649 224.013 130.655 226.705C130.661 229.397 130.016 232.071 130.173 234.758C130.33 237.445 131.565 240.346 134.071 241.332C134.301 240.069 134.788 238.868 135.502 237.801C136.215 236.734 137.14 235.826 138.219 235.13C139.926 234.045 142 233.507 143.443 232.09C146.333 229.254 145.418 224.535 145.529 220.489C145.665 215.497 147.69 210.726 148.047 205.745C148.226 203.256 147.925 200.588 146.392 198.618C145.185 197.271 143.717 196.184 142.076 195.423L128.449 187.952C127.828 187.564 127.145 187.287 126.429 187.134C124.423 186.826 122.689 188.434 120.787 189.142C119.184 189.624 117.504 189.799 115.836 189.655C110.546 189.533 109.057 190.411 105.501 187.465C105.205 187.221 104.861 187.04 104.492 186.934C104.122 186.829 103.734 186.801 103.353 186.853C101.227 187.141 97.0944 187.957 95.931 190.032Z" fill="#2F2E41"/>
</g>
<defs>
<linearGradient id="paint0_linear" x1="643.248" y1="628.371" x2="310.341" y2="359.737" gradientUnits="userSpaceOnUse">
<stop stop-color="#80689F"/>
<stop offset="1" stop-color="#9A7EB4"/>
</linearGradient>
<linearGradient id="paint1_linear" x1="462.367" y1="864.947" x2="379.927" y2="429.267" gradientUnits="userSpaceOnUse">
<stop stop-color="#9671B4"/>
<stop offset="1" stop-color="#F2F2F2" stop-opacity="0"/>
</linearGradient>
<clipPath id="clip0">
<rect width="944" height="805" fill="white"/>
</clipPath>
</defs>
</svg>
